<svg id="Layer_1" data-name="Layer 1" xmlns="http://www.w3.org/2000/svg" viewBox="0 0 696.48 320.51"><defs><style>.cls-1{fill:#231f20;}</style></defs><path class="cls-1" d="M276.51,316.69c19.55-44.17,47.14-79.6,82-105.28A243.68,243.68,0,0,1,425.05,177c.51,17.8,10.55,40.75,28.41,61.27a138.68,138.68,0,0,0,20.2,19.09c6.31-19.27,1.88-38.65,1-42a192.12,192.12,0,0,0-42.53-30.61,1.57,1.57,0,0,1-.86-1.42,1.43,1.43,0,0,1,.16-.66,1.55,1.55,0,0,1,2.08-.7,192.67,192.67,0,0,1,25.86,16.31,1.37,1.37,0,0,1,.46.21c4.74,3.3,11.84,4.15,18.41,4.06C463.44,187.8,447,178,432.65,174.5c7.41-2.27,15-4.27,22.76-5.95a305.72,305.72,0,0,1,46.39-6.29,56.47,56.47,0,0,1,14.44,10.17,45.66,45.66,0,0,1,5.73,6.82c-.17,3.4-1.75,19.89-15.53,25a1.53,1.53,0,0,0-1,1.43,1.35,1.35,0,0,0,.09.56,1.54,1.54,0,0,0,2,.92c7.21-2.67,12.54-8.48,15.42-16.78a41.25,41.25,0,0,0,1.68-6.71A37.88,37.88,0,0,1,528.06,207a1.55,1.55,0,0,0,3.07.47,40.5,40.5,0,0,0-6-29,1.52,1.52,0,0,0-.79-1.2A56.06,56.06,0,0,0,507.64,162a310.46,310.46,0,0,1,56.66,2.64,54.09,54.09,0,0,0,30.29,88.52,54.18,54.18,0,0,0,14.88-41.69,54.22,54.22,0,0,0,42.79-10.08,54.2,54.2,0,0,0-24.51-41A54.13,54.13,0,0,0,646.67,116a54,54,0,0,0-80.37,44.7,322.23,322.23,0,0,0-89.17-.19,62.69,62.69,0,0,0,18.62-12.71c6.51-4.69,21.26-1.52,21.41-1.49a1.55,1.55,0,1,0,.67-3c-.54-.12-10-2.17-17.86-.48a26.82,26.82,0,0,0,4.1-7.78,1.55,1.55,0,0,0-3-.82c0,.1-1.68,5.57-8.38,12.11l-.11.09v0c-6,5.84-16.09,12.5-32.66,17q-2.61.51-5.23,1.08a264.45,264.45,0,0,0-70.24,25.62c8.61-10.06,16.08-24.21,21-40.8-5.81,3.08-11.62,7.24-14.19,12.42a1.2,1.2,0,0,1-.3.4,190,190,0,0,1-14.81,26.75,1.55,1.55,0,0,1-2.16.39,1.49,1.49,0,0,1-.46-.51,1.54,1.54,0,0,1,.07-1.65,192.24,192.24,0,0,0,22.54-47.31c-.86-3.33-6.32-22.46-21.12-36.31a139.52,139.52,0,0,0-8.52,26.46c-5.82,26.82-3.48,52,4.83,67.81q-7.8,4.86-15.18,10.27c-35.48,26.13-63.54,62.13-83.4,107a2,2,0,0,0-.18.81,2.07,2.07,0,0,0,4,.87ZM575.06,154a1.55,1.55,0,0,1-1.19-1.53,2,2,0,0,1,0-.34c6.12-25.2,34-31.47,35.22-31.73a1.55,1.55,0,0,1,.65,3,53.2,53.2,0,0,0-11,4.13,46.32,46.32,0,0,1,14.35.63,67.36,67.36,0,0,1,14.69,4.57,1.55,1.55,0,1,1-1.32,2.81c-.24-.12-24.19-11.12-38.45-.8l-.08.05a35.09,35.09,0,0,0-11.05,18A1.55,1.55,0,0,1,575.06,154Zm17.53,92.62a1.55,1.55,0,1,1-2.7-1.52C598,230.7,600,217.26,596,205.2a45.22,45.22,0,0,0-10.7-16.92c3.38,8.34,6.75,22.46,0,37.44a1.55,1.55,0,0,1-2.83-1.26c8.86-19.84-1.54-38.61-3.41-41.71a63,63,0,0,0-12-7.46,1.53,1.53,0,0,1-.81-2,1.55,1.55,0,0,1,2-.81A63.72,63.72,0,0,1,580.69,180a1.53,1.53,0,0,1,.59.45c6.61,5.2,14,13,17.61,23.72C603.26,217.12,601.14,231.41,592.59,246.66Zm55.15-50.47a1.55,1.55,0,0,1-.55,2.12,66.45,66.45,0,0,1-38.2,7.42,1.55,1.55,0,0,1-1.38-1.56.76.76,0,0,1,0-.15,1.55,1.55,0,0,1,1.71-1.37,64.42,64.42,0,0,0,36.29-7A1.55,1.55,0,0,1,647.74,196.19Zm-13-20.36a1.55,1.55,0,1,1-2.58,1.71c-.07-.09-3.5-5-12-8.68A53.27,53.27,0,0,0,600.08,165c7.9,3.21,18.17,10.15,19.21,24.69a1.55,1.55,0,1,1-3.09.22c-.63-8.86-5.09-15.65-13.25-20.18a38.57,38.57,0,0,0-12.43-4.24l-.09,0A106.55,106.55,0,0,0,576,168.05a1.56,1.56,0,0,1-1.88-1.14,1.29,1.29,0,0,1,0-.39,1.54,1.54,0,0,1,1.18-1.48C619.77,154,634.19,174.94,634.78,175.83Z"/><path class="cls-1" d="M481.22,205.53a56.16,56.16,0,0,1-13.52-.75c3,2.52,6.16,5.33,9.3,8.4a1.28,1.28,0,0,1,.26.26c13,12.78,25.78,30.05,28.65,50.26a1.55,1.55,0,0,1-3.07.44c-2.45-17.21-12.42-32.38-24.13-44.73,1.43,8.09,3,24.07-2.43,39.86,13,9.43,26.3,15.07,37.65,16.06.94-18.24-9.23-43-28.37-65C484.14,208.66,482.69,207.08,481.22,205.53Z"/><path class="cls-1" d="M397.29,83.46a1.55,1.55,0,0,1,.9-2,1.56,1.56,0,0,1,2,.9c7.21,19.1,4.33,40.39-.91,57.85a2,2,0,0,1-.1.35c-1.28,4.2-2.68,8.18-4.11,11.85a56.63,56.63,0,0,1,11.49-7.18c.54-2.06,1.05-4.14,1.51-6.27,6.18-28.49,3.16-55.11-6.45-70.65-9.47,6.34-18.4,17.67-25.27,32.21,12.38,11.22,18.68,26,21.33,33.76C402,117.82,403.43,99.72,397.29,83.46Z"/><path class="cls-1" d="M425.24,317.74a2.06,2.06,0,0,0,1.23-1.92,2.16,2.16,0,0,0-.18-.81c-19.86-44.86-47.92-80.86-83.41-107q-7.36-5.43-15.17-10.27c8.31-15.83,10.64-41,4.83-67.81A139.52,139.52,0,0,0,324,103.48c-14.8,13.85-20.26,33-21.12,36.31a192.42,192.42,0,0,0,22.53,47.31,1.54,1.54,0,0,1,.08,1.65,1.6,1.6,0,0,1-.46.51,1.55,1.55,0,0,1-2.16-.39,190.57,190.57,0,0,1-14.82-26.75,1.35,1.35,0,0,1-.3-.4c-2.57-5.18-8.38-9.34-14.18-12.42,4.89,16.59,12.37,30.74,21,40.8a264.71,264.71,0,0,0-70.24-25.62c-1.75-.38-3.5-.74-5.23-1.08-16.57-4.45-26.64-11.11-32.67-17v0l-.1-.09c-6.7-6.54-8.36-12-8.39-12.11a1.55,1.55,0,0,0-3,.82,27,27,0,0,0,4.11,7.78c-7.82-1.69-17.32.36-17.87.48a1.55,1.55,0,1,0,.67,3c.16,0,14.91-3.2,21.42,1.49a62.69,62.69,0,0,0,18.62,12.71,322.23,322.23,0,0,0-89.17.19A54.06,54.06,0,0,0,52.34,116a54.11,54.11,0,0,0,18.93,44.33,54.18,54.18,0,0,0-24.51,41,54.2,54.2,0,0,0,42.78,10.08,54.23,54.23,0,0,0,14.89,41.69,54.08,54.08,0,0,0,30.28-88.52A310.58,310.58,0,0,1,191.37,162a56.18,56.18,0,0,0-16.65,15.31,1.57,1.57,0,0,0-.79,1.2,40.5,40.5,0,0,0-6,29A1.55,1.55,0,1,0,171,207a37.82,37.82,0,0,1,3.46-23.37,40.24,40.24,0,0,0,1.68,6.71c2.87,8.3,8.2,14.11,15.41,16.78a1.55,1.55,0,0,0,1.08-2.91c-13.78-5.11-15.36-21.6-15.54-25a45.66,45.66,0,0,1,5.73-6.82,56.64,56.64,0,0,1,14.45-10.17,306.05,306.05,0,0,1,46.39,6.29c7.76,1.68,15.34,3.68,22.75,5.95-14.37,3.51-30.78,13.3-45.62,28,6.57.09,13.67-.76,18.42-4.06a1.32,1.32,0,0,1,.45-.21,192.37,192.37,0,0,1,25.87-16.31,1.55,1.55,0,0,1,2.24,1.36,1.57,1.57,0,0,1-.86,1.42,192.31,192.31,0,0,0-42.54,30.61c-.85,3.34-5.27,22.72,1,42a138.74,138.74,0,0,0,20.21-19.09c17.85-20.52,27.9-43.47,28.4-61.27a243.74,243.74,0,0,1,66.55,34.45c34.86,25.68,62.45,61.11,82,105.28A2.07,2.07,0,0,0,425.24,317.74ZM122.09,152.9a35.16,35.16,0,0,0-11-18l-.09-.05c-14.25-10.32-38.21.68-38.45.8a1.55,1.55,0,0,1-1.31-2.81,67.39,67.39,0,0,1,14.68-4.57,46.33,46.33,0,0,1,14.35-.63,53,53,0,0,0-11-4.13,1.56,1.56,0,0,1,.66-3c1.18.26,29.1,6.53,35.21,31.73a1.32,1.32,0,0,1,0,.34A1.53,1.53,0,0,1,124,154,1.55,1.55,0,0,1,122.09,152.9Zm-22,51.28c3.62-10.7,11-18.52,17.6-23.72a1.69,1.69,0,0,1,.59-.45,64,64,0,0,1,12.39-7.56,1.55,1.55,0,0,1,2,.81,1.56,1.56,0,0,1-.81,2,63.27,63.27,0,0,0-12,7.46c-1.86,3.1-12.27,21.87-3.4,41.71a1.55,1.55,0,0,1-2.84,1.26c-6.69-15-3.32-29.1,0-37.44a45.2,45.2,0,0,0-10.69,16.92c-4.07,12.06-2,25.5,6.07,39.94a1.55,1.55,0,1,1-2.71,1.52C97.87,231.41,95.75,217.12,100.13,204.18ZM53.4,195.64a64.4,64.4,0,0,0,36.28,7A1.56,1.56,0,0,1,91.4,204a.76.76,0,0,0,0,.15A1.55,1.55,0,0,1,90,205.73a66.5,66.5,0,0,1-38.21-7.42,1.55,1.55,0,0,1,1.58-2.67ZM123.77,165a1.54,1.54,0,0,1,1.18,1.48,1.31,1.31,0,0,1,0,.39,1.54,1.54,0,0,1-1.87,1.14,106.82,106.82,0,0,0-14.44-2.58l-.09,0a38.57,38.57,0,0,0-12.43,4.24c-8.16,4.53-12.62,11.32-13.25,20.18a1.55,1.55,0,0,1-3.1-.22c1-14.54,11.32-21.48,19.22-24.69a53.22,53.22,0,0,0-20.12,3.85c-8.51,3.63-11.94,8.59-12,8.68a1.55,1.55,0,1,1-2.59-1.71C64.83,174.94,79.24,154,123.77,165Z"/><path class="cls-1" d="M217.8,205.53a56.18,56.18,0,0,0,13.52-.75c-3,2.52-6.17,5.33-9.31,8.4a2.13,2.13,0,0,0-.26.26c-13,12.78-25.77,30.05-28.65,50.26a1.56,1.56,0,0,0,3.08.44c2.44-17.21,12.41-32.38,24.12-44.73-1.42,8.09-3,24.07,2.44,39.86-13,9.43-26.3,15.07-37.66,16.06-.93-18.24,9.24-43,28.37-65C214.88,208.66,216.33,207.08,217.8,205.53Z"/><path class="cls-1" d="M301.73,83.46a1.55,1.55,0,1,0-2.9-1.1c-7.22,19.1-4.33,40.39.9,57.85a1.42,1.42,0,0,0,.11.35c1.27,4.2,2.68,8.18,4.11,11.85a56.9,56.9,0,0,0-11.49-7.18c-.54-2.06-1-4.14-1.51-6.27-6.18-28.49-3.16-55.11,6.45-70.65,9.47,6.34,18.39,17.67,25.27,32.21-12.38,11.22-18.69,26-21.33,33.76C297,117.82,295.59,99.72,301.73,83.46Z"/><circle class="cls-1" cx="349.41" cy="43.15" r="42.63"/><circle class="cls-1" cx="44.6" cy="264.34" r="42.63"/><circle class="cls-1" cx="651" cy="263.8" r="42.63"/><path class="cls-1" d="M244.26,95.72a11,11,0,0,0-4.64-1.94,11.07,11.07,0,0,0,5.28-15.14,11.08,11.08,0,0,0-12.62,10.52,10.94,10.94,0,0,0-3.46-4.1,11.1,11.1,0,0,0-11.48-.93,11.08,11.08,0,0,0,9,12.53,11.11,11.11,0,0,0-4.89,15A11.08,11.08,0,0,0,234,101.68a11.07,11.07,0,0,0,14.74,4.65A11.09,11.09,0,0,0,244.26,95.72ZM233.4,94.51Z"/><path class="cls-1" d="M441.44,103.09a11.08,11.08,0,0,0,11.47-.93,10.82,10.82,0,0,0,3.26-3.73,11.1,11.1,0,0,0,12.59,9.94,11.09,11.09,0,0,0-.85-11.48,11,11,0,0,0-4-3.47,11.09,11.09,0,0,0,8.95-12.53,11.08,11.08,0,0,0-14.93,5A11.08,11.08,0,0,0,445.27,75.4a11.08,11.08,0,0,0,5.27,15.14,10.94,10.94,0,0,0-4.63,1.94A11.07,11.07,0,0,0,441.44,103.09Zm15.33-11.82Z"/></svg>